<?xml version="1.0" encoding="UTF-8"?>
<svg width="8px" height="12px" viewBox="0 0 8 12" version="1.1" xmlns="http://www.w3.org/2000/svg" xmlns:xlink="http://www.w3.org/1999/xlink">
    <!-- Generator: Sketch 50.2 (55047) - http://www.bohemiancoding.com/sketch -->
    <title>Unknown-5</title>
    <desc>Created with Sketch.</desc>
    <defs></defs>
    <g id="Page-1" stroke="none" stroke-width="1" fill="none" fill-rule="evenodd">
        <g id="Unknown-5" fill="#77E315" fill-rule="nonzero">
            <path d="M0.839954,10.80794 C0.733885,10.89633 0.719554,11.054 0.807945,11.16 C0.896336,11.2661 1.0539768,11.2804 1.160046,11.1921 L0.839954,10.80794 Z M7,6 L7.16005,6.19205 C7.21704,6.14456 7.25,6.07419 7.25,6 C7.25,5.9258 7.21704,5.85544 7.16005,5.80794 L7,6 Z M1.160046,0.807945 C1.0539768,0.719554 0.896336,0.733885 0.807945,0.839954 C0.719554,0.9460235 0.733885,1.103665 0.839954,1.192056 L1.160046,0.807945 Z M1.160046,11.1921 L7.16005,6.19205 L6.83995,5.80794 L0.839954,10.80794 L1.160046,11.1921 Z M7.16005,5.80794 L1.160046,0.807945 L0.839954,1.192056 L6.83995,6.19205 L7.16005,5.80794 Z" id="path0_stroke"></path>
        </g>
    </g>
</svg>